<?xml version="1.0" standalone="no"?>
<!DOCTYPE svg PUBLIC "-//W3C//DTD SVG 20010904//EN"
 "http://www.w3.org/TR/2001/REC-SVG-20010904/DTD/svg10.dtd">
<svg version="1.0" xmlns="http://www.w3.org/2000/svg"
 width="512.000000pt" height="512.000000pt" viewBox="0 0 512.000000 512.000000"
 preserveAspectRatio="xMidYMid meet">
<metadata>
Created by potrace 1.14, written by Peter Selinger 2001-2017
</metadata>
<g transform="translate(0.000000,512.000000) scale(0.100000,-0.100000)"
fill="#000000" stroke="none">
<path d="M2105 4860 l-30 -8 27 -1 c15 0 30 4 33 9 3 6 5 9 3 9 -2 -1 -16 -5
-33 -9z"/>
<path d="M1825 4830 c-16 -7 -17 -9 -3 -9 9 -1 20 4 23 9 7 11 7 11 -20 0z"/>
<path d="M1921 4820 c-35 -11 -66 -22 -70 -25 -7 -8 31 1 108 25 75 24 43 23
-38 0z"/>
<path d="M1952 4805 c-30 -7 -57 -16 -60 -20 -10 -10 68 6 103 20 38 17 25 16
-43 0z"/>
<path d="M1623 4765 c0 -7 6 -11 14 -8 7 3 13 6 13 8 0 2 -6 5 -13 8 -8 3 -14
-1 -14 -8z"/>
<path d="M1753 4768 c-20 -10 -21 -12 -7 -23 9 -6 28 -9 43 -6 25 5 24 6 -9
11 l-35 6 35 11 c20 6 26 11 15 11 -11 1 -30 -4 -42 -10z"/>
<path d="M1481 4746 c-21 -12 -22 -14 -5 -20 10 -4 15 -4 11 0 -4 4 1 13 11
20 22 17 14 17 -17 0z"/>
<path d="M1556 4738 c5 -8 2 -9 -10 -5 -11 5 -15 3 -10 -5 5 -8 1 -9 -12 -4
-14 5 -16 4 -8 -4 9 -9 17 -9 33 -1 22 12 28 31 10 31 -5 0 -7 -5 -3 -12z"/>
<path d="M1700 4740 c-12 -7 -10 -9 7 -7 12 0 19 5 17 9 -6 10 -6 10 -24 -2z"/>
<path d="M1908 4744 c-4 -3 -14 -7 -24 -8 -10 -2 -20 -9 -22 -17 -2 -8 0 -10
5 -4 4 6 17 12 28 13 11 2 27 8 35 13 13 7 13 8 -1 9 -9 0 -18 -3 -21 -6z"/>
<path d="M1634 4731 c9 -14 -57 -44 -99 -44 -16 0 -24 -2 -17 -5 23 -7 -68
-53 -92 -47 -14 4 -17 3 -8 -3 9 -6 6 -12 -13 -20 -15 -7 -32 -9 -38 -6 -7 4
-9 4 -5 -1 4 -4 -4 -17 -18 -27 -14 -11 -23 -23 -20 -26 4 -3 -2 -14 -11 -25
-10 -11 17 1 60 27 43 25 80 46 83 46 2 0 18 9 36 21 29 18 30 20 8 15 -14 -3
6 10 45 29 73 37 101 44 89 23 -4 -7 -3 -10 1 -5 14 12 16 45 3 53 -7 4 -8 3
-4 -5z m-194 -126 c0 -2 -18 -14 -40 -25 -22 -11 -40 -17 -40 -13 1 13 80 51
80 38z m-90 -45 c0 -5 -5 -10 -11 -10 -5 0 -7 5 -4 10 3 6 8 10 11 10 2 0 4
-4 4 -10z"/>
<path d="M1570 4715 c-14 -8 -20 -14 -15 -14 6 0 21 6 35 14 14 8 21 14 15 14
-5 0 -21 -6 -35 -14z"/>
<path d="M1430 4700 c-19 -11 -31 -19 -27 -20 11 0 67 29 67 35 0 7 -1 7 -40
-15z"/>
<path d="M1698 4713 c7 -3 16 -2 19 1 4 3 -2 6 -13 5 -11 0 -14 -3 -6 -6z"/>
<path d="M1350 4670 c-9 -6 -10 -10 -3 -10 6 0 15 5 18 10 8 12 4 12 -15 0z"/>
<path d="M1445 4671 c-3 -5 0 -13 6 -17 7 -4 9 -3 5 4 -3 5 0 13 6 15 9 4 10
6 1 6 -6 1 -14 -3 -18 -8z"/>
<path d="M1540 4650 c-8 -5 -10 -10 -5 -10 6 0 17 5 25 10 8 5 11 10 5 10 -5
0 -17 -5 -25 -10z"/>
<path d="M1053 4604 c-22 -20 -24 -23 -6 -15 12 6 25 16 28 21 4 6 11 8 16 5
5 -4 9 -1 9 4 0 18 -17 12 -47 -15z"/>
<path d="M1279 4613 c-13 -16 -12 -17 4 -4 9 7 17 15 17 17 0 8 -8 3 -21 -13z"/>
<path d="M1570 4617 c0 -5 -4 -5 -10 -2 -6 3 -7 -1 -4 -9 5 -14 9 -14 37 1 44
21 44 23 8 20 -17 -1 -31 -6 -31 -10z"/>
<path d="M1241 4601 c-8 -5 -16 -17 -17 -26 -1 -9 1 -14 4 -10 4 4 6 9 4 12
-2 3 5 11 15 19 20 15 16 19 -6 5z"/>
<path d="M1310 4599 c0 -5 -5 -7 -12 -3 -6 4 -8 3 -5 -3 4 -6 -3 -13 -14 -16
-12 -3 -18 -10 -14 -16 3 -6 0 -9 -8 -5 -8 3 -18 0 -23 -7 -5 -8 -3 -10 6 -4
9 5 11 4 6 -3 -4 -7 -14 -12 -22 -12 -8 0 -14 -5 -14 -11 0 -5 -4 -8 -9 -4 -5
3 -13 0 -17 -6 -4 -8 -3 -9 4 -5 7 4 12 3 12 -2 0 -6 -7 -13 -16 -16 -22 -9
-26 -8 -18 5 4 7 -2 7 -17 -1 -34 -18 -38 -24 -9 -15 22 7 24 6 11 -9 -8 -9
-20 -15 -27 -12 -8 3 -13 0 -11 -7 1 -7 -4 -11 -11 -9 -8 1 -11 -2 -7 -8 3 -5
1 -10 -5 -10 -7 0 -21 -11 -32 -25 -20 -25 -45 -35 -32 -12 4 6 -3 3 -16 -8
-13 -11 -20 -15 -17 -8 8 13 -10 12 -33 -1 -12 -7 -13 -6 -2 5 17 19 15 29 -5
22 -17 -6 -17 -5 0 14 31 36 -6 37 -45 1 -7 -7 -33 -30 -57 -52 -33 -28 -37
-36 -20 -31 22 7 23 7 9 -11 -37 -46 -44 -53 -51 -48 -4 2 -5 -6 -2 -18 3 -13
2 -20 -2 -16 -4 4 -23 -6 -42 -22 -19 -17 -38 -28 -42 -25 -5 2 -17 -5 -27
-18 -15 -16 -15 -19 -2 -9 15 12 17 11 15 -7 -2 -30 -38 -70 -65 -74 -12 -2
-37 -21 -55 -42 -18 -22 -42 -50 -54 -63 -13 -14 -20 -33 -18 -50 2 -15 -5
-41 -16 -58 -29 -47 -23 -54 8 -11 15 22 29 35 30 30 4 -11 -25 -83 -33 -83
-3 0 -2 6 2 13 5 9 4 9 -6 0 -7 -6 -14 -22 -15 -36 -2 -13 -14 -46 -29 -72
-28 -53 -59 -67 -82 -38 -13 17 -14 17 -7 -1 4 -13 3 -17 -5 -12 -6 3 -14 1
-18 -5 -5 -8 -3 -9 6 -4 10 6 12 4 7 -9 -4 -10 -7 -20 -7 -22 0 -3 -6 -2 -12
2 -10 5 -10 4 -1 -6 10 -11 16 -9 33 10 11 13 20 20 20 15 0 -4 7 -2 15 5 22
19 18 2 -14 -56 -17 -28 -28 -54 -25 -56 2 -3 -9 -32 -25 -65 -16 -33 -36 -83
-44 -111 -9 -28 -23 -67 -31 -87 -9 -19 -23 -51 -32 -71 -9 -19 -17 -48 -18
-62 -1 -15 -6 -34 -11 -42 -5 -8 -8 -41 -8 -73 1 -34 -2 -55 -7 -52 -6 3 -7 0
-4 -8 3 -8 1 -18 -5 -21 -5 -3 -13 -35 -16 -71 -4 -36 -11 -65 -15 -65 -5 0
-4 -15 1 -32 12 -42 11 -51 -2 -42 -7 4 -7 -1 1 -16 8 -15 8 -20 1 -16 -8 5
-11 -17 -12 -71 -1 -43 -1 -89 -1 -103 -1 -14 0 -34 2 -45 2 -17 3 -17 10 5 7
21 8 18 10 -20 1 -35 3 -40 10 -25 7 16 9 17 9 3 1 -9 -4 -20 -9 -23 -6 -3
-10 -14 -10 -23 0 -15 2 -15 11 -2 9 12 10 11 5 -4 -4 -11 -4 -52 0 -90 7 -68
8 -70 20 -41 12 30 12 29 19 -29 5 -38 10 -53 16 -45 7 11 9 10 9 -3 0 -9 -6
-19 -12 -21 -9 -4 -9 -6 -1 -6 12 -1 6 -41 -7 -41 -5 0 -11 10 -14 23 -2 12
-3 -5 0 -37 4 -58 9 -74 19 -65 2 3 1 20 -4 37 -5 18 -6 32 -2 32 5 0 11 -15
15 -32 5 -24 2 -36 -9 -44 -12 -9 -13 -13 -3 -16 9 -4 10 -9 2 -19 -12 -16
-12 -38 0 -88 6 -26 10 -30 18 -20 7 10 8 3 5 -21 -3 -19 -3 -28 0 -20 4 10
12 3 25 -25 10 -22 16 -32 14 -23 -3 9 -7 34 -10 55 l-6 38 11 -35 c6 -19 19
-40 29 -47 16 -11 56 -103 44 -103 -2 0 -16 24 -29 53 -42 88 -15 10 48 -143
33 -80 69 -158 80 -174 11 -15 21 -38 22 -50 4 -36 5 -37 14 -31 10 5 28 -19
30 -40 3 -26 17 -53 62 -120 27 -39 49 -79 49 -88 0 -15 11 -22 33 -18 6 1 9
-8 6 -26 0 -3 6 -10 15 -15 9 -5 14 -13 11 -17 -2 -5 3 -15 13 -22 16 -13 16
-13 2 5 -14 18 -13 19 3 13 27 -10 20 7 -24 57 -23 26 -40 49 -37 51 2 2 25
-22 51 -54 45 -57 58 -79 37 -66 -5 3 -10 2 -10 -3 0 -6 7 -13 16 -16 8 -3 12
-2 9 4 -16 26 11 4 62 -50 30 -33 62 -60 71 -60 8 0 72 -59 142 -130 71 -72
123 -127 117 -124 -14 8 35 -38 84 -79 l34 -28 -45 27 c-25 15 -67 42 -95 61
l-50 35 40 -36 c79 -72 347 -237 362 -223 2 3 -30 24 -71 48 -42 23 -74 44
-72 46 2 2 66 -28 141 -66 76 -39 144 -71 151 -71 8 0 14 -4 14 -9 0 -5 16
-15 35 -21 19 -6 33 -15 30 -20 -3 -4 3 -6 13 -3 11 2 25 -1 33 -9 8 -7 21
-14 29 -16 8 -2 17 -7 20 -11 3 -4 14 -11 25 -14 l20 -7 -20 16 c-19 15 -18
16 15 9 19 -4 60 -15 90 -25 30 -10 96 -25 145 -35 50 -9 100 -21 112 -27 11
-6 27 -7 34 -3 7 5 10 4 6 -2 -9 -15 53 -23 77 -11 13 7 16 7 12 -1 -4 -6 -2
-11 3 -11 6 0 11 6 11 13 0 7 3 8 8 2 7 -10 42 -13 194 -18 47 -1 89 -5 93 -9
4 -4 12 -5 18 -3 7 2 50 6 97 9 47 3 96 8 110 10 24 5 104 18 180 31 154 26
194 35 200 45 4 7 9 11 11 10 2 -1 18 4 34 10 33 13 61 17 118 19 25 1 36 5
31 12 -4 8 1 9 16 4 15 -5 20 -4 16 4 -4 6 -1 11 6 11 19 0 230 88 237 98 3 5
70 42 149 82 100 51 153 84 175 110 18 21 48 46 67 56 19 11 49 29 67 42 17
12 36 22 41 22 6 0 13 6 15 13 4 9 6 8 6 -2 1 -11 5 -10 20 3 19 18 47 14 35
-5 -3 -5 -9 -7 -14 -4 -5 3 -14 -4 -20 -15 -6 -11 -15 -18 -20 -15 -5 3 -11 1
-15 -5 -4 -6 -11 -8 -16 -5 -5 4 -23 -3 -39 -15 -17 -12 -30 -19 -30 -15 0 3
-20 -8 -45 -25 -25 -17 -45 -33 -45 -35 0 -16 44 0 81 29 23 19 47 32 51 30 4
-3 8 0 8 5 0 6 8 11 18 11 14 -1 15 -2 2 -9 -8 -5 -19 -9 -23 -9 -5 -1 -17
-10 -27 -22 -10 -12 -22 -21 -27 -21 -15 -1 -16 -9 -1 -9 14 0 94 57 134 95
88 82 182 175 178 175 -2 0 -17 -8 -31 -17 l-26 -18 17 28 c10 15 24 27 32 27
18 0 27 17 13 26 -7 4 -9 3 -6 -3 3 -5 0 -10 -8 -10 -10 0 -9 6 5 25 11 13 17
28 14 33 -3 5 -2 8 3 7 4 -2 10 2 12 7 2 6 18 27 37 48 19 20 34 42 34 47 0 6
8 10 17 10 9 0 14 3 10 6 -3 3 7 17 24 31 16 14 29 34 29 44 0 11 4 17 10 14
12 -7 53 19 44 28 -4 4 -2 13 4 20 10 11 17 36 21 68 1 4 11 18 22 33 12 15
52 90 90 168 37 77 72 145 78 151 5 7 32 75 61 152 29 77 58 154 65 170 14 34
65 230 71 278 3 18 11 73 19 122 8 50 17 117 20 150 13 124 16 139 25 145 6 4
8 28 6 56 -3 27 -8 78 -11 114 -5 68 -14 151 -19 185 -24 147 -41 225 -50 225
-7 0 -17 17 -23 38 -15 51 -47 136 -53 142 -12 12 -28 57 -29 83 -1 36 -47
133 -66 141 -19 7 -19 6 10 -60 14 -32 24 -58 22 -60 -1 -1 -22 28 -47 66 -24
37 -53 73 -63 80 -18 11 -19 9 -14 -17 5 -22 4 -23 -3 -8 -5 11 -11 31 -14 45
-3 14 -26 55 -50 93 -25 37 -43 67 -41 67 2 0 -6 11 -19 25 -13 14 -36 44 -52
67 -16 24 -31 45 -34 48 -3 3 -19 23 -36 45 -53 69 -48 83 8 21 79 -88 106
-128 100 -145 -3 -8 -1 -12 5 -8 5 3 34 -32 64 -78 54 -85 73 -103 85 -83 5 7
2 8 -6 3 -10 -6 -12 -4 -7 9 8 20 -15 60 -28 48 -5 -4 -5 -1 -1 6 8 14 -30 82
-45 82 -6 0 -8 4 -5 9 3 4 -4 17 -15 27 -12 11 -22 17 -24 14 -1 -3 -24 19
-49 47 -26 29 -45 57 -42 61 3 5 -4 18 -16 28 -12 11 -18 13 -14 7 13 -22 -2
-14 -36 20 -56 56 -147 135 -181 158 -25 17 -21 11 16 -26 26 -26 47 -49 47
-51 0 -9 -11 -3 -42 24 -56 49 -230 172 -242 172 -9 -1 5 -14 49 -48 88 -65
218 -192 199 -192 -9 0 -48 31 -88 69 -39 37 -82 74 -96 80 -25 13 -1 -11 93
-91 34 -29 52 -58 26 -43 -5 4 -19 -1 -30 -11 -19 -17 -19 -18 0 -38 30 -32
43 -72 27 -86 -11 -8 -23 1 -57 40 -23 27 -47 50 -52 50 -4 0 -24 12 -43 26
-19 15 -36 25 -39 23 -2 -3 32 -33 75 -68 44 -34 80 -66 80 -71 0 -4 -14 5
-32 21 -19 18 -34 26 -38 20 -4 -7 -13 -6 -26 4 -39 30 -32 14 14 -29 56 -52
79 -101 54 -115 -12 -7 -22 0 -44 30 -15 21 -33 39 -39 39 -5 0 -8 -4 -5 -9 4
-5 2 -11 -4 -13 -6 -2 0 -14 12 -28 13 -14 24 -34 26 -44 3 -18 2 -18 -13 -2
-9 9 -21 16 -28 16 -6 0 4 -13 21 -28 28 -25 29 -28 11 -27 -11 1 -25 8 -30
16 -5 8 -9 10 -9 5 0 -6 22 -31 50 -57 38 -36 49 -53 48 -73 -3 -30 -10 -33
-29 -9 -12 15 -12 16 3 10 14 -5 16 -2 9 16 -5 12 -14 22 -21 22 -21 0 -19
-45 2 -58 10 -7 18 -19 18 -27 0 -11 2 -12 8 -2 9 14 52 -54 52 -82 0 -32 -29
-4 -35 35 -4 21 -10 37 -15 34 -4 -3 -13 2 -20 10 -16 19 -31 19 -24 0 4 -8 1
-15 -5 -15 -20 0 -11 -30 12 -40 12 -5 18 -9 14 -9 -4 -1 -3 -10 3 -21 7 -14
17 -19 29 -15 12 3 20 -3 29 -22 8 -21 10 -22 6 -5 -10 43 34 7 47 -38 7 -22
14 -38 17 -36 4 4 -13 58 -34 110 -5 14 -4 17 5 11 19 -11 51 -85 51 -117 0
-15 12 -64 27 -110 14 -46 27 -94 29 -108 2 -14 10 -50 19 -80 8 -30 18 -77
20 -105 14 -139 22 -196 31 -204 2 -2 4 3 4 12 0 8 5 17 11 19 7 2 7 12 0 31
-16 40 -14 95 3 104 12 6 13 17 7 46 -5 21 -5 39 0 43 5 3 9 2 9 -3 1 -4 3
-34 7 -65 3 -32 2 -66 -2 -75 -10 -22 -7 -54 6 -69 5 -7 12 -27 14 -45 7 -47
7 -263 0 -324 -16 -155 -16 -154 -36 -268 -49 -282 -217 -651 -412 -907 -118
-154 -333 -380 -362 -380 -8 0 -15 -4 -15 -9 0 -9 -116 -87 -225 -149 -73 -41
-159 -82 -257 -121 -62 -25 -75 -35 -30 -25 15 4 24 3 20 -1 -4 -4 -20 -8 -35
-10 -15 -1 -39 -7 -53 -13 -14 -5 -30 -7 -37 -5 -6 2 -29 -7 -52 -21 -22 -14
-59 -28 -83 -32 -24 -3 -50 -8 -58 -12 -8 -3 -36 -6 -62 -7 -25 -1 -55 -6 -65
-10 -38 -16 -295 -24 -363 -11 -19 3 -55 6 -80 7 -25 1 -74 7 -110 14 -39 8
-66 10 -68 4 -4 -10 -42 -12 -66 -3 -9 3 -13 10 -10 15 5 8 -38 14 -78 10 -10
-1 -38 7 -64 18 -26 12 -57 21 -70 21 -12 0 -26 5 -29 10 -4 6 -11 8 -16 5 -5
-4 -9 -2 -9 3 0 5 -21 17 -47 27 -27 10 -52 22 -57 26 -16 15 12 10 47 -7 18
-9 28 -12 22 -6 -14 16 -88 45 -80 33 3 -6 1 -11 -5 -11 -6 0 -8 -4 -5 -10 3
-6 -1 -7 -9 -4 -9 3 -14 10 -11 14 3 5 -3 7 -12 6 -20 -3 -43 16 -43 35 0 7 6
5 13 -6 9 -12 16 -14 21 -7 9 14 -50 45 -67 35 -8 -4 -7 -1 2 10 12 15 9 21
-11 18 -4 0 -22 6 -40 14 -18 8 -28 14 -23 15 6 0 -1 6 -15 14 -15 8 -30 9
-37 4 -7 -6 -14 -4 -19 3 -5 8 -3 9 6 4 9 -6 11 -4 6 4 -5 7 -14 10 -22 7 -8
-3 -13 -1 -11 3 1 5 -16 21 -38 36 -22 15 -33 20 -26 11 12 -14 12 -16 -2 -10
-9 3 -33 28 -53 55 -19 27 -50 59 -67 71 -18 12 -26 15 -20 7 21 -26 2 -30
-29 -6 -47 35 -290 281 -318 321 -14 20 -44 61 -67 92 -23 30 -63 99 -90 152
-26 53 -51 99 -55 102 -3 3 -16 30 -28 60 -12 30 -26 60 -32 65 -12 11 -8 -5
17 -74 9 -24 14 -45 12 -48 -8 -7 -69 141 -109 262 -42 129 -54 153 -43 90 9
-49 1 -44 -13 8 -6 20 -6 35 -1 32 12 -8 0 52 -17 89 -8 16 -14 39 -13 50 0
17 3 16 14 -9 10 -20 14 -24 15 -12 0 11 4 15 12 11 7 -5 9 -2 6 8 -4 8 -10
41 -14 74 -7 53 -9 56 -16 29 -6 -25 -7 -23 -4 13 3 30 1 40 -7 35 -8 -5 -8
-2 0 8 8 10 9 19 3 25 -6 6 -11 42 -12 81 -2 52 -6 69 -14 62 -8 -7 -14 2 -19
28 -5 21 -7 46 -6 56 1 9 -3 17 -8 17 -6 0 -11 5 -11 11 0 5 4 8 9 4 6 -3 9
15 8 44 -1 27 1 47 4 45 12 -7 1 66 -12 83 -12 15 -12 16 1 9 8 -4 5 1 -8 11
-19 16 -22 25 -16 53 3 19 6 51 6 70 0 31 0 32 7 10 6 -21 9 -14 20 38 7 35
10 66 7 69 -2 3 -8 -11 -11 -31 -4 -20 -11 -38 -15 -41 -4 -3 3 36 15 87 13
50 22 95 19 100 -3 4 0 8 5 8 6 0 10 3 9 8 -3 7 6 32 64 186 16 43 27 80 25
83 -3 2 6 15 20 29 16 16 23 32 20 45 -4 15 -2 18 7 10 9 -8 16 -4 26 14 7 14
17 25 22 25 5 0 6 5 3 10 -4 6 -11 8 -16 4 -12 -7 42 93 83 153 31 45 36 62
14 44 -10 -8 -16 -9 -21 -1 -4 6 -1 9 6 8 6 -2 14 3 17 11 3 9 0 11 -8 6 -14
-9 -11 -4 34 63 32 47 48 57 22 15 -10 -16 0 -9 23 17 28 30 41 39 41 28 0 -9
-7 -21 -16 -26 -12 -7 -13 -11 -5 -17 14 -8 41 24 34 41 -2 7 0 15 6 19 7 4 8
-1 4 -12 -6 -17 -5 -17 14 0 11 9 23 14 27 10 4 -4 4 1 0 11 -5 12 -4 17 2 13
13 -8 35 7 38 25 3 22 27 49 37 42 5 -3 6 3 2 12 -5 14 -3 16 11 11 10 -4 15
-3 11 3 -3 5 9 22 26 38 18 16 33 39 34 51 l2 21 -23 -21 c-13 -12 -21 -26
-17 -32 3 -6 2 -7 -4 -4 -5 3 -21 -5 -36 -19 -22 -20 -31 -23 -46 -14 -13 7
-22 7 -26 0 -6 -9 1 -14 17 -11 14 1 0 -51 -17 -63 -14 -10 -15 -15 -5 -21 9
-6 11 -4 5 5 -5 9 -4 11 4 6 18 -11 3 -25 -21 -18 -16 4 -19 2 -13 -8 5 -9 4
-11 -4 -6 -6 4 -18 3 -25 -3 -9 -8 -13 -7 -13 4 0 8 3 12 7 10 4 -3 16 5 26
18 16 19 17 20 1 8 -25 -20 -28 -10 -5 18 14 19 21 22 27 12 6 -10 10 -9 15 4
9 25 7 32 -4 15 -8 -12 -9 -10 -7 7 4 30 45 73 63 66 8 -3 11 -10 7 -17 -3 -6
10 4 30 23 22 21 34 40 32 52 -2 11 1 19 6 19 6 0 8 4 5 9 -9 14 227 201 255
201 21 1 66 42 74 68 3 12 11 22 16 22 5 0 9 5 9 10 0 6 -4 10 -10 10 -5 0
-10 -5 -10 -11z m-362 -186 c-9 -10 -14 -22 -12 -28 4 -11 -75 -60 -83 -51 -9
9 51 56 65 51 7 -3 10 0 7 6 -4 6 1 17 11 24 26 20 30 18 12 -2z m25 -80 c-13
-9 -23 -21 -23 -28 0 -20 -27 -38 -36 -24 -5 8 -3 9 6 4 9 -6 11 -4 5 5 -5 8
-4 11 2 7 5 -3 9 4 8 16 -3 28 5 48 15 42 5 -3 12 0 15 6 5 8 10 7 19 -1 8 -9
5 -16 -11 -27z m-58 7 c-3 -5 -1 -10 5 -10 6 0 4 -9 -5 -23 -8 -13 -13 -26
-10 -28 7 -8 -59 -80 -75 -82 -8 -1 -16 -7 -18 -12 -2 -6 -13 -20 -24 -32 -12
-13 -18 -23 -13 -23 5 0 -2 -12 -16 -27 -13 -14 -18 -23 -11 -19 6 4 12 3 12
-2 0 -6 -7 -12 -15 -16 -12 -4 -15 3 -15 29 0 24 5 35 14 35 8 0 18 4 21 10 3
6 -1 7 -10 4 -9 -4 -4 7 12 26 48 57 106 111 112 105 3 -3 -1 -11 -9 -16 -13
-9 -13 -10 0 -6 8 2 16 13 16 25 1 23 -5 27 -22 14 -5 -4 5 7 21 25 31 33 41
40 30 23z m45 -83 c0 -2 -11 -14 -25 -27 -21 -19 -25 -21 -25 -7 0 9 7 17 15
17 8 0 15 5 15 10 0 6 5 10 10 10 6 0 10 -1 10 -3z m30 -31 c0 -3 -4 -8 -10
-11 -5 -3 -10 -1 -10 4 0 6 5 11 10 11 6 0 10 -2 10 -4z m-260 -50 c0 -2 -8
-10 -18 -19 -16 -15 -18 -15 -18 1 0 10 8 19 18 19 10 1 18 0 18 -1z m-108
-121 c-7 -12 -56 -73 -99 -124 -12 -14 -23 -21 -23 -15 0 10 10 24 50 71 6 7
19 28 30 46 11 19 27 34 35 34 8 0 11 -5 7 -12z m3933 -5 c3 -5 1 -10 -4 -10
-6 0 -11 5 -11 10 0 6 2 10 4 10 3 0 8 -4 11 -10z m-3901 -45 c-4 -8 -11 -15
-16 -15 -6 0 -5 6 2 15 7 8 14 15 16 15 2 0 1 -7 -2 -15z m3666 -67 l23 -33
-26 24 c-15 14 -27 28 -27 33 0 14 5 9 30 -24z m-3670 6 c0 -8 -19 -13 -24 -6
-3 5 1 9 9 9 8 0 15 -2 15 -3z m-115 -127 c-8 -13 -12 -27 -8 -30 3 -4 1 -7
-6 -7 -7 0 -9 -5 -5 -12 4 -6 3 -8 -3 -5 -6 4 -25 -21 -42 -56 -18 -34 -29
-51 -26 -37 9 33 74 153 89 162 17 12 18 10 1 -15z m3912 -659 c-3 -8 -6 -5
-6 6 -1 11 2 17 5 13 3 -3 4 -12 1 -19z m-4281 -385 c-3 -31 -8 -58 -11 -61
-7 -7 -6 68 1 96 11 40 16 23 10 -35z m176 -8 c3 -14 1 -25 -3 -25 -5 0 -9 11
-9 25 0 14 2 25 4 25 2 0 6 -11 8 -25z m5 -147 c-3 -8 -6 -5 -6 6 -1 11 2 17
5 13 3 -3 4 -12 1 -19z m-187 -72 c4 -20 4 -39 -1 -42 -5 -3 -9 3 -10 13 0 10
-2 31 -4 47 -5 38 5 26 15 -18z m267 -278 c-3 -8 -6 -5 -6 6 -1 11 2 17 5 13
3 -3 4 -12 1 -19z m-185 -347 c2 -17 1 -28 -4 -25 -8 5 -12 54 -4 54 2 0 6
-13 8 -29z m381 -231 c3 -11 1 -20 -4 -20 -5 0 -9 9 -9 21 0 13 -4 18 -12 13
-7 -4 -8 -3 -4 5 10 15 22 7 29 -19z m-248 -69 c16 -43 20 -59 10 -51 -12 10
-45 97 -45 118 0 14 13 -11 35 -67z m298 -5 l17 -41 -20 25 c-33 40 -41 57
-27 57 7 0 20 -19 30 -41z m57 -99 c0 -4 -7 -2 -15 7 -8 8 -15 21 -15 28 1 14
30 -20 30 -35z m-290 -43 c18 -30 30 -57 28 -59 -2 -2 -19 23 -37 55 -18 33
-30 60 -27 60 2 0 19 -25 36 -56z m315 6 c3 -6 -1 -7 -9 -4 -18 7 -21 14 -7
14 6 0 13 -4 16 -10z m33 -70 c-2 -7 -10 1 -17 16 -12 27 -11 28 4 12 10 -9
16 -21 13 -28z m-258 -81 c0 -6 -4 -7 -10 -4 -5 3 -10 11 -10 16 0 6 5 7 10 4
6 -3 10 -11 10 -16z m425 -121 l40 -42 -37 30 c-30 24 -55 54 -45 54 2 0 21
-19 42 -42z m-345 -23 c4 2 15 -4 25 -15 10 -11 15 -20 10 -20 -4 0 -14 8 -22
18 -14 16 -14 16 -9 -2 9 -28 -15 -5 -37 36 l-18 33 21 -28 c12 -15 25 -25 30
-22z m650 -194 c14 -14 6 -10 -17 8 -24 18 -43 37 -43 43 0 6 8 2 18 -8 9 -11
28 -30 42 -43z m3060 -166 c-7 -8 -10 -21 -7 -29 6 -15 -45 -70 -56 -60 -4 4
-2 13 4 21 6 7 8 13 3 13 -4 0 7 16 26 35 34 35 53 48 30 20z m-2669 -112 c11
-12 8 -12 -17 -2 -41 18 -50 27 -20 22 14 -3 31 -12 37 -20z m-501 -50 c0 -8
-38 17 -51 33 -9 11 -2 9 19 -6 17 -13 32 -25 32 -27z m633 6 c20 -21 20 -21
-4 -14 -13 4 -31 14 -40 21 -9 9 -24 12 -34 8 -13 -5 -16 -4 -10 5 11 18 64 6
88 -20z m-449 -151 c-3 -5 -12 -1 -20 7 -9 8 -19 13 -24 10 -4 -2 -19 6 -34
20 -14 13 -26 22 -26 19 0 -3 -5 -2 -10 1 -6 4 -8 10 -5 15 3 5 32 -7 65 -27
32 -21 56 -41 54 -45z m30 -20 c-5 -7 -1 -9 10 -5 9 4 35 -3 58 -15 23 -12 36
-24 29 -26 -19 -6 -72 19 -64 31 4 7 0 8 -12 4 -19 -8 -48 10 -39 24 3 5 10 7
15 3 5 -3 6 -10 3 -16z m926 -257 c19 -1 21 -4 11 -10 -16 -10 -42 -7 -68 8
-15 9 -14 10 7 7 14 -3 36 -5 50 -5z"/>
<path d="M835 4230 c-10 -11 -16 -22 -13 -25 3 -3 13 4 23 15 10 11 16 22 13
25 -3 3 -13 -4 -23 -15z"/>
<path d="M779 4163 c-13 -16 -12 -17 4 -4 9 7 17 15 17 17 0 8 -8 3 -21 -13z"/>
<path d="M4285 780 c-16 -7 -17 -9 -3 -9 9 -1 20 4 23 9 7 11 7 11 -20 0z"/>
<path d="M1145 4574 c-18 -16 -22 -22 -9 -15 18 9 53 42 43 41 -2 -1 -17 -12
-34 -26z"/>
<path d="M1196 4571 c-4 -7 -5 -15 -2 -18 9 -9 19 4 14 18 -4 11 -6 11 -12 0z"/>
<path d="M1090 4540 c-9 -6 -10 -10 -3 -10 6 0 15 5 18 10 8 12 4 12 -15 0z"/>
<path d="M1054 4519 c-3 -6 -3 -13 0 -16 3 -4 6 -1 6 5 0 6 7 9 15 6 8 -4 15
-4 15 -1 0 11 -30 16 -36 6z"/>
<path d="M1136 4521 c-7 -11 -88 -51 -102 -51 -25 0 -62 -26 -61 -42 1 -10 5
-18 9 -18 4 0 5 -6 2 -13 -3 -8 2 -14 10 -14 8 0 14 5 13 11 -1 6 4 10 11 8 8
-1 11 1 9 5 -8 14 9 46 26 49 16 2 97 61 97 70 0 7 -9 4 -14 -5z m-106 -66 c0
-2 -10 -10 -22 -16 -21 -11 -22 -11 -9 4 13 16 31 23 31 12z"/>
<path d="M1405 4500 c-3 -6 1 -7 9 -4 18 7 21 14 7 14 -6 0 -13 -4 -16 -10z"/>
<path d="M1321 4485 c-1 -17 -3 -17 -11 -5 -8 13 -10 12 -10 -3 0 -10 -4 -15
-10 -12 -13 8 -60 -18 -85 -46 -21 -24 -10 -20 39 15 16 11 38 21 48 21 25 2
42 20 35 37 -3 8 -6 5 -6 -7z"/>
<path d="M1190 4462 c-18 -15 -20 -19 -7 -19 10 0 17 4 17 9 0 5 4 7 9 3 5 -3
12 -1 15 4 12 19 -12 21 -34 3z"/>
<path d="M869 4453 c-13 -16 -12 -17 4 -4 9 7 17 15 17 17 0 8 -8 3 -21 -13z"/>
<path d="M1140 4425 c-7 -8 -9 -15 -5 -15 4 0 1 -8 -6 -17 -11 -16 -11 -16 1
-5 8 7 15 18 15 25 1 7 7 11 14 9 7 -1 10 2 6 8 -8 13 -10 13 -25 -5z"/>
<path d="M4140 4406 c0 -2 7 -7 16 -10 8 -3 12 -2 9 4 -6 10 -25 14 -25 6z"/>
<path d="M1225 4389 c-4 -6 -5 -12 -2 -15 2 -3 7 2 10 11 7 17 1 20 -8 4z"/>
<path d="M1074 4376 c-10 -8 -19 -20 -19 -28 0 -7 -7 -12 -16 -10 -9 1 -24 -7
-34 -18 -17 -18 -17 -20 -2 -14 9 3 17 10 17 15 0 5 5 9 11 9 5 0 7 -6 4 -12
-4 -7 9 3 28 24 20 20 38 34 41 30 3 -3 6 0 6 6 0 16 -12 15 -36 -2z"/>
<path d="M1118 4361 c-16 -10 -25 -21 -21 -24 11 -12 20 -8 37 18 9 14 15 25
14 24 -2 0 -15 -8 -30 -18z"/>
<path d="M4260 4367 c0 -3 21 -22 47 -43 26 -21 44 -33 40 -27 -9 14 -87 77
-87 70z"/>
<path d="M744 4328 l-19 -23 23 19 c21 18 27 26 19 26 -2 0 -12 -10 -23 -22z"/>
<path d="M1074 4319 c-5 -9 -2 -10 9 -6 12 4 15 1 11 -16 -2 -12 -8 -23 -14
-25 -6 -2 -8 -8 -4 -13 3 -5 15 -3 27 6 24 17 33 47 11 38 -9 -3 -14 0 -12 7
4 17 -18 24 -28 9z"/>
<path d="M1030 4275 c-13 -14 -19 -25 -13 -25 6 0 18 11 27 25 9 14 15 25 13
25 -2 0 -14 -11 -27 -25z"/>
<path d="M1070 4289 c0 -5 5 -7 10 -4 6 3 10 8 10 11 0 2 -4 4 -10 4 -5 0 -10
-5 -10 -11z"/>
<path d="M733 4236 c-15 -13 -26 -27 -23 -29 3 -3 18 8 34 24 35 35 28 38 -11
5z"/>
<path d="M640 4215 c-7 -8 -16 -13 -20 -10 -5 3 -11 2 -14 -3 -10 -17 24 -8
41 10 9 10 14 18 11 18 -3 0 -11 -7 -18 -15z"/>
<path d="M869 4193 c-8 -9 -9 -14 -2 -10 6 4 13 2 15 -5 3 -9 6 -9 12 0 4 7 2
12 -4 12 -6 0 -8 5 -5 10 10 16 -1 11 -16 -7z"/>
<path d="M4212 4184 c10 -10 20 -15 24 -12 3 4 -5 12 -18 18 -22 12 -22 12 -6
-6z"/>
<path d="M4190 4163 c0 -6 8 -17 18 -24 16 -13 16 -13 2 6 -8 11 -16 22 -17
24 -2 2 -3 0 -3 -6z"/>
<path d="M626 4112 l-19 -27 24 22 c12 12 21 24 18 27 -2 2 -13 -8 -23 -22z"/>
<path d="M1019 4123 c-13 -16 -12 -17 4 -4 9 7 17 15 17 17 0 8 -8 3 -21 -13z"/>
<path d="M557 4112 c-20 -22 -22 -33 -4 -26 15 6 40 44 29 44 -5 0 -16 -8 -25
-18z"/>
<path d="M4176 4117 c6 -15 44 -40 44 -29 0 10 -33 42 -43 42 -3 0 -4 -6 -1
-13z"/>
<path d="M4042 4024 c10 -10 20 -15 24 -12 3 4 -5 12 -18 18 -22 12 -22 12 -6
-6z"/>
<path d="M844 4016 c-4 -9 -13 -15 -20 -12 -8 3 -11 0 -8 -8 6 -15 40 -10 50
6 4 5 1 15 -5 21 -7 7 -12 5 -17 -7z"/>
<path d="M778 3969 c-18 -19 -44 -27 -33 -10 3 5 0 13 -6 17 -7 4 -9 3 -6 -3
4 -6 -5 -21 -18 -33 -14 -13 -25 -28 -25 -33 0 -6 11 0 26 14 19 17 23 19 18
6 -3 -10 -15 -22 -25 -28 -11 -5 -19 -16 -19 -24 0 -8 -4 -15 -9 -15 -5 0 -17
-12 -27 -27 -12 -20 -13 -24 -2 -16 12 11 14 9 13 -6 -1 -10 -9 -29 -19 -42
-17 -23 -17 -23 -1 5 10 16 13 26 7 22 -5 -3 -20 -23 -32 -43 -14 -24 -16 -32
-6 -24 22 19 20 7 -7 -37 -13 -20 -26 -45 -30 -55 -4 -11 -12 -15 -19 -11 -10
6 -10 4 0 -8 9 -11 10 -18 2 -23 -5 -3 -10 -11 -10 -16 0 -6 5 -7 12 -3 7 4 8
3 4 -5 -4 -6 -11 -9 -16 -6 -4 3 -11 -2 -14 -11 -4 -9 -2 -13 5 -8 7 4 10 1 7
-7 -3 -8 -10 -13 -16 -12 -6 2 -9 -3 -6 -11 3 -8 -8 -43 -24 -77 -32 -70 -56
-136 -57 -159 0 -8 -6 -24 -13 -35 -13 -19 -13 -19 -7 5 8 34 12 50 24 88 6
19 6 30 0 27 -5 -4 -9 -12 -9 -19 0 -7 -8 -24 -19 -37 -41 -53 -65 -215 -28
-192 6 4 8 0 4 -10 -3 -9 -8 -40 -11 -69 -4 -40 -3 -44 3 -18 l7 35 8 -28 c5
-18 4 -32 -4 -42 -7 -9 -8 -15 -2 -15 5 0 9 -8 7 -17 -13 -63 -13 -93 -1 -93
7 0 13 6 13 13 0 6 3 37 7 67 7 52 11 81 14 123 1 10 6 16 11 13 5 -4 7 2 4
13 -4 18 29 164 47 206 5 11 14 39 21 62 7 24 16 40 22 36 6 -3 7 -1 3 5 -11
19 109 293 157 357 25 33 28 11 4 -26 -28 -41 -50 -92 -38 -85 4 3 14 19 21
35 7 17 17 29 23 28 6 -1 12 9 13 22 1 13 8 27 15 32 8 5 10 9 5 9 -5 0 1 9
13 19 13 11 20 24 17 30 -4 5 -1 13 5 17 8 5 9 3 4 -6 -6 -9 -4 -11 4 -6 7 5
10 11 7 14 -3 3 3 12 15 20 11 8 18 20 15 28 -3 8 -2 13 2 11 4 -1 8 1 10 5 1
5 16 21 34 38 35 34 34 51 -2 20 -35 -30 -70 -82 -63 -93 3 -6 1 -7 -5 -3 -6
3 -23 -10 -38 -31 -15 -21 -32 -42 -38 -48 -17 -18 37 69 67 107 20 26 27 45
23 60 -3 13 -3 17 0 10 3 -6 10 -9 15 -6 6 3 2 12 -8 20 -23 17 -24 17 -45 -7z
m-267 -572 c-10 -9 -11 -8 -5 6 3 10 9 15 12 12 3 -3 0 -11 -7 -18z m-81 -186
c0 -18 -12 -41 -22 -41 -6 0 -5 6 2 15 6 8 9 19 5 25 -3 5 -1 10 4 10 6 0 11
-4 11 -9z m-25 -53 c6 -4 2 -8 -7 -8 -10 0 -18 7 -18 17 0 9 3 12 8 7 4 -5 12
-12 17 -16z"/>
<path d="M670 3926 c-8 -10 -8 -21 -2 -32 6 -11 11 -13 16 -5 4 6 2 11 -4 11
-8 0 -8 6 0 20 13 23 8 26 -10 6z"/>
<path d="M410 3900 c-6 -11 -8 -20 -6 -20 3 0 10 9 16 20 6 11 8 20 6 20 -3 0
-10 -9 -16 -20z"/>
<path d="M370 3838 c-16 -27 -29 -63 -17 -47 15 19 47 79 43 79 -4 0 -15 -15
-26 -32z"/>
<path d="M395 3750 c-20 -38 -19 -43 4 -23 11 9 17 23 13 31 -4 11 -2 13 8 7
9 -5 11 -4 6 3 -10 17 -14 15 -31 -18z"/>
<path d="M313 3728 c-12 -15 -25 -65 -14 -52 9 11 32 64 27 64 -2 0 -8 -6 -13
-12z"/>
<path d="M355 3709 c-4 -6 -5 -12 -2 -15 2 -3 7 2 10 11 7 17 1 20 -8 4z"/>
<path d="M575 3699 c-11 -17 1 -21 15 -4 8 9 8 15 2 15 -6 0 -14 -5 -17 -11z"/>
<path d="M276 3585 c-3 -8 -1 -15 4 -15 6 0 10 7 10 15 0 8 -2 15 -4 15 -2 0
-6 -7 -10 -15z"/>
<path d="M517 3567 l-17 -32 20 24 c17 20 26 41 18 41 -2 0 -11 -15 -21 -33z"/>
<path d="M310 3579 c0 -5 5 -7 10 -4 6 3 10 8 10 11 0 2 -4 4 -10 4 -5 0 -10
-5 -10 -11z"/>
<path d="M4190 3561 c0 -5 6 -14 14 -20 12 -10 13 -8 9 8 -5 21 -23 30 -23 12z"/>
<path d="M250 3458 c-27 -57 -57 -131 -66 -165 -9 -34 -21 -60 -26 -57 -5 3
-7 -7 -5 -23 2 -15 -3 -55 -11 -88 -18 -75 -41 -229 -36 -234 11 -11 20 29 23
102 1 20 5 26 14 21 9 -6 9 -5 0 7 -12 15 -7 62 7 54 4 -2 5 8 3 23 -3 19 -2
23 5 13 12 -17 18 -6 31 50 7 30 7 47 -1 56 -6 7 -7 13 -2 13 5 0 10 13 11 30
3 39 50 175 77 225 26 46 38 75 30 75 -3 0 -27 -46 -54 -102z m-75 -288 c-9
-41 -17 -33 -9 9 4 17 9 30 11 27 3 -2 2 -19 -2 -36z"/>
<path d="M320 3540 c-6 -11 -7 -20 -2 -20 6 0 12 9 15 20 3 11 3 20 1 20 -2 0
-8 -9 -14 -20z"/>
<path d="M216 3515 c-9 -26 -7 -32 5 -12 6 10 9 21 6 23 -2 3 -7 -2 -11 -11z"/>
<path d="M494 3492 c4 -6 2 -22 -4 -34 -11 -22 -10 -22 4 -4 19 24 20 32 4 42
-7 4 -8 3 -4 -4z"/>
<path d="M187 3434 c-9 -25 -12 -42 -7 -39 10 6 34 74 28 80 -2 2 -11 -16 -21
-41z"/>
<path d="M575 3449 c-4 -6 -5 -12 -2 -15 2 -3 7 2 10 11 7 17 1 20 -8 4z"/>
<path d="M246 3393 c-6 -14 -5 -15 5 -6 7 7 10 15 7 18 -3 3 -9 -2 -12 -12z"/>
<path d="M4325 3370 c9 -16 18 -30 21 -30 2 0 -2 14 -11 30 -9 17 -18 30 -21
30 -2 0 2 -13 11 -30z"/>
<path d="M5001 3364 c0 -11 3 -14 6 -6 3 7 2 16 -1 19 -3 4 -6 -2 -5 -13z"/>
<path d="M229 3338 c-4 -62 -3 -76 3 -72 7 4 9 84 2 84 -2 0 -4 -6 -5 -12z"/>
<path d="M5022 3295 c0 -11 3 -29 8 -40 11 -25 11 1 0 35 -6 20 -8 21 -8 5z"/>
<path d="M131 3184 c0 -11 3 -14 6 -6 3 7 2 16 -1 19 -3 4 -6 -2 -5 -13z"/>
<path d="M339 2974 c0 -5 -2 -22 -4 -39 -2 -16 -2 -24 2 -16 4 10 7 11 13 1 5
-7 7 0 6 18 -1 28 -15 57 -17 36z"/>
<path d="M73 2903 c0 -7 4 -13 8 -13 4 0 9 6 12 13 3 8 0 14 -7 14 -7 0 -13
-6 -13 -14z"/>
<path d="M99 2863 c0 -10 -2 -26 -4 -35 -2 -10 0 -18 4 -18 4 0 8 16 9 35 1
19 -1 35 -3 35 -3 0 -5 -8 -6 -17z"/>
<path d="M406 2833 c-6 -14 -5 -15 5 -6 7 7 10 15 7 18 -3 3 -9 -2 -12 -12z"/>
<path d="M92 2768 c-2 -37 10 -50 24 -26 4 6 3 8 -4 4 -7 -4 -12 6 -15 26 -4
33 -4 33 -5 -4z"/>
<path d="M4457 2783 c-10 -9 -9 -33 1 -33 4 0 8 9 8 20 0 23 0 22 -9 13z"/>
<path d="M89 2714 c0 -5 0 -37 1 -71 1 -46 -2 -63 -12 -63 -9 0 -10 -3 -2 -8
7 -4 11 -33 9 -73 -1 -55 10 -127 15 -94 5 28 0 308 -4 313 -3 3 -6 1 -7 -4z"/>
<path d="M5082 2360 c0 -19 2 -27 5 -17 2 9 2 25 0 35 -3 9 -5 1 -5 -18z"/>
<path d="M447 2195 c5 -53 32 -149 39 -142 5 4 -8 64 -31 147 l-13 45 5 -50z"/>
<path d="M130 2151 c0 -11 4 -22 9 -25 4 -3 6 6 3 19 -5 30 -12 33 -12 6z"/>
<path d="M141 2094 c0 -11 3 -14 6 -6 3 7 2 16 -1 19 -3 4 -6 -2 -5 -13z"/>
<path d="M150 2040 c0 -16 4 -30 8 -30 5 0 7 14 4 30 -2 17 -6 30 -8 30 -2 0
-4 -13 -4 -30z"/>
<path d="M61 2044 c0 -11 3 -14 6 -6 3 7 2 16 -1 19 -3 4 -6 -2 -5 -13z"/>
<path d="M497 2009 c4 -13 8 -18 11 -10 2 7 -1 18 -6 23 -8 8 -9 4 -5 -13z"/>
<path d="M511 1978 c-1 -12 31 -89 35 -85 3 2 -4 24 -15 48 -11 24 -20 41 -20
37z"/>
<path d="M202 1830 c0 -14 2 -19 5 -12 2 6 2 18 0 25 -3 6 -5 1 -5 -13z"/>
<path d="M227 1813 c-2 -5 -3 -15 -2 -23 4 -23 47 -121 51 -117 3 3 -17 74
-33 117 -4 8 -5 18 -5 23 1 4 0 7 -2 7 -3 0 -7 -3 -9 -7z"/>
<path d="M4897 1644 c-4 -4 -7 -17 -7 -28 1 -19 1 -20 11 -3 11 19 8 43 -4 31z"/>
<path d="M372 1499 c1 -12 8 -24 15 -26 7 -3 9 3 6 17 -8 29 -25 37 -21 9z"/>
<path d="M4827 1483 c-46 -73 -57 -100 -42 -100 8 0 12 4 9 9 -3 4 -1 8 4 8 5
0 20 27 35 60 14 33 24 60 21 60 -2 0 -14 -17 -27 -37z"/>
<path d="M387 1443 c-4 -3 0 -15 10 -25 9 -10 13 -18 9 -18 -3 0 1 -15 11 -32
9 -18 18 -39 19 -46 1 -7 15 -25 30 -40 25 -25 25 -22 -10 41 -30 54 -35 67
-21 67 14 0 13 4 -5 30 -22 30 -31 35 -43 23z"/>
<path d="M4744 1322 c-6 -4 -14 -17 -18 -29 -4 -13 -11 -23 -17 -23 -10 0 -59
-74 -59 -91 0 -6 -25 -33 -55 -61 -30 -27 -53 -54 -50 -58 3 -4 -3 -16 -13
-27 -9 -10 -13 -13 -8 -6 6 8 6 17 0 23 -5 5 -25 -11 -48 -38 -38 -44 -38 -45
-6 -17 l33 30 -21 -31 c-12 -17 -19 -33 -17 -36 3 -3 -5 -13 -17 -24 l-23 -19
20 25 20 25 -28 -24 c-26 -24 -36 -38 -18 -27 5 4 11 1 13 -6 4 -12 14 -4 75
65 57 63 197 253 226 306 29 53 30 56 11 43z"/>
<path d="M570 1141 c0 -6 4 -13 10 -16 6 -3 7 1 4 9 -7 18 -14 21 -14 7z"/>
<path d="M1370 976 c0 -2 7 -9 15 -16 9 -7 15 -8 15 -2 0 5 -7 12 -15 16 -8 3
-15 4 -15 2z"/>
<path d="M817 903 c-9 -14 9 -35 25 -31 13 2 12 6 -2 21 -10 10 -20 14 -23 10z"/>
<path d="M832 851 c2 -8 21 -25 42 -39 21 -13 35 -19 32 -13 -4 6 -2 11 5 11
9 0 9 3 -1 14 -6 8 -18 12 -26 9 -8 -3 -24 3 -36 13 -14 13 -19 15 -16 5z"/>
<path d="M930 766 c0 -2 7 -6 15 -10 8 -3 15 -1 15 4 0 6 -7 10 -15 10 -8 0
-15 -2 -15 -4z"/>
<path d="M999 718 c49 -31 68 -32 40 -2 -15 16 -25 20 -30 13 -5 -8 -8 -8 -13
0 -4 6 -13 11 -19 11 -7 0 3 -10 22 -22z"/>
<path d="M4179 693 c-12 -16 -12 -17 2 -6 9 7 20 9 24 5 5 -4 5 -1 1 6 -9 16
-11 15 -27 -5z"/>
<path d="M1960 675 c7 -8 19 -15 27 -15 13 0 13 3 3 15 -7 8 -19 15 -27 15
-13 0 -13 -3 -3 -15z"/>
<path d="M2098 603 c7 -3 16 -2 19 1 4 3 -2 6 -13 5 -11 0 -14 -3 -6 -6z"/>
<path d="M3934 485 c-12 -8 -24 -11 -28 -8 -3 3 -6 2 -6 -4 0 -6 -9 -13 -20
-16 -11 -3 -20 -11 -19 -19 0 -10 2 -10 6 0 2 6 12 12 21 12 10 0 31 11 47 25
33 27 32 34 -1 10z"/>
<path d="M2343 135 c0 -8 6 -15 13 -15 6 0 14 7 18 15 3 10 -1 15 -13 15 -10
0 -18 -7 -18 -15z"/>
<path d="M2258 133 c6 -2 18 -2 25 0 6 3 1 5 -13 5 -14 0 -19 -2 -12 -5z"/>
<path d="M2307 129 c7 -7 15 -10 18 -7 3 3 -2 9 -12 12 -14 6 -15 5 -6 -5z"/>
</g>
</svg>
